<?xml version="1.0" standalone="no"?><!DOCTYPE svg PUBLIC "-//W3C//DTD SVG 1.1//EN" "http://www.w3.org/Graphics/SVG/1.1/DTD/svg11.dtd"><svg t="1662702141816" class="icon" viewBox="0 0 1365 1024" version="1.1" xmlns="http://www.w3.org/2000/svg" p-id="3623" xmlns:xlink="http://www.w3.org/1999/xlink" width="266.6015625" height="200"><path d="M994.986667 853.333333a28.444444 28.444444 0 0 1 17.066666 50.062223 512 512 0 0 1-796.444444-193.991112 28.444444 28.444444 0 0 1 38.684444-36.408888A2186.24 2186.24 0 0 0 602.453333 796.444444a1944.462222 1944.462222 0 0 0 392.533334 56.888889z m-336.782223-277.048889c249.742222 63.146667 430.648889 56.888889 512 39.253334a28.444444 28.444444 0 0 0 21.617778-22.755556 502.328889 502.328889 0 0 0-27.875555-264.533333 512 512 0 0 0-963.697778 22.755555 27.875556 27.875556 0 0 0 8.533333 30.151112 1237.333333 1237.333333 0 0 0 449.422222 196.835555z m703.715556 85.902223a124.586667 124.586667 0 0 0 3.413333-43.235556 56.888889 56.888889 0 0 0-62.008889-50.062222 56.888889 56.888889 0 0 0-51.768888 65.422222c-11.377778 42.666667-232.106667 93.297778-607.573334 0-284.444444-71.68-479.004444-185.457778-523.377778-261.12A36.977778 36.977778 0 0 1 113.777778 349.297778a56.888889 56.888889 0 0 0-109.795556-29.582222 141.084444 141.084444 0 0 0 19.342222 109.795555c68.835556 116.622222 301.511111 240.071111 593.351112 313.457778a1777.208889 1777.208889 0 0 0 416.995555 56.888889c169.528889 1.137778 301.511111-37.546667 327.68-135.964445z" fill="#2c2c2c" p-id="3624"></path></svg>